<svg width="17" height="18" viewBox="0 0 17 18" fill="none" xmlns="http://www.w3.org/2000/svg">
    <g clip-path="url(#clip0_212_970)">
        <path d="M6.23356 13.5253L8.50023 16.9231L10.7669 13.5253H15.3002C15.6008 13.5253 15.8891 13.4059 16.1016 13.1934C16.3142 12.9809 16.4336 12.6926 16.4336 12.392V2.19995C16.4333 1.89957 16.3137 1.61159 16.1012 1.39929C15.8887 1.187 15.6006 1.06775 15.3002 1.06775H1.70023C1.39965 1.06775 1.11138 1.18715 0.89884 1.39969C0.686299 1.61224 0.566895 1.9005 0.566895 2.20108V12.3943C0.566895 13.0199 1.07349 13.5265 1.70023 13.5265L6.23356 13.5253Z" stroke="white" stroke-linecap="square" stroke-linejoin="round"/>
        <path d="M8.50008 3C6.75956 3 5.39648 4.41595 5.39648 6.15647C5.39648 7.4678 6.04055 8.09231 6.54948 8.54822C6.87713 8.84198 7.09763 9.01889 7.09763 9.23686V9.71371C7.09763 9.72594 7.09933 9.7379 7.10087 9.74999H7.09454V10.5641C7.09468 11.4229 7.65001 12 8.51021 12C9.34046 12 9.90718 11.4229 9.90718 10.5641V9.75H9.89902C9.90057 9.73791 9.90268 9.72595 9.90268 9.71372V9.23687C9.90268 8.90499 10.1491 8.70432 10.5226 8.37821C11.028 7.93693 11.6038 7.38779 11.6038 6.15648C11.604 4.41595 10.2406 3 8.50008 3ZM8.4894 11.4375C7.9629 11.4375 7.65717 11.111 7.65717 10.5641L7.6531 10.189C7.85545 10.2582 8.13108 10.3125 8.50022 10.3125C8.8643 10.3125 9.14048 10.2543 9.34467 10.1827V10.5641C9.34467 11.1191 9.03488 11.4375 8.48939 11.4375H8.4894ZM10.1527 7.9545C9.77063 8.2882 9.34031 8.63316 9.34031 9.23686V9.59222C9.20687 9.66675 8.96077 9.75534 8.49545 9.75534C8.00705 9.75534 7.77545 9.66872 7.66027 9.60177V9.23672C7.66027 8.75677 7.28509 8.45188 6.92481 8.12915C6.44738 7.70137 5.95913 7.21649 5.95913 6.15632C5.95899 4.72616 7.06993 3.56249 8.50008 3.56249C9.93052 3.56249 11.0415 4.72616 11.0415 6.15647C11.0415 7.13227 10.6155 7.5502 10.1527 7.9545H10.1527Z" fill="white"/>
    </g>
    <defs>
        <clipPath id="clip0_212_970">
            <rect width="17" height="17" fill="white" transform="translate(0 0.5)"/>
        </clipPath>
    </defs>
</svg>
