<svg width="46" height="46" viewBox="0 0 46 46" fill="none" xmlns="http://www.w3.org/2000/svg">
    <path d="M22.0417 34.5C29.7083 34.5 36.34 30.245 39.7517 23.9583C36.34 17.6717 29.7083 13.4167 22.0417 13.4167C14.375 13.4167 7.74333 17.6717 4.33166 23.9583C7.74333 30.245 14.375 34.5 22.0417 34.5ZM22.0417 11.5C30.7817 11.5 38.3333 16.5792 41.8983 23.9583C38.3333 31.3375 30.7817 36.4167 22.0417 36.4167C13.3017 36.4167 5.75 31.3375 2.185 23.9583C5.75 16.5792 13.3017 11.5 22.0417 11.5ZM22.0417 15.3333C26.8333 15.3333 30.6667 19.1667 30.6667 23.9583C30.6667 28.75 26.8333 32.5833 22.0417 32.5833C17.25 32.5833 13.4167 28.75 13.4167 23.9583C13.4167 19.1667 17.25 15.3333 22.0417 15.3333ZM22.0417 17.25C20.2625 17.25 18.5562 17.9568 17.2982 19.2148C16.0401 20.4729 15.3333 22.1792 15.3333 23.9583C15.3333 25.7375 16.0401 27.4438 17.2982 28.7018C18.5562 29.9599 20.2625 30.6667 22.0417 30.6667C23.8208 30.6667 25.5271 29.9599 26.7852 28.7018C28.0432 27.4438 28.75 25.7375 28.75 23.9583C28.75 22.1792 28.0432 20.4729 26.7852 19.2148C25.5271 17.9568 23.8208 17.25 22.0417 17.25Z" fill="white"/>
</svg>
