<svg width="29" height="33" viewBox="0 0 29 33" fill="none" xmlns="http://www.w3.org/2000/svg">
    <path d="M0.833313 7.95833C0.833313 4.73642 0.833313 3.12717 1.8344 2.12608C2.83548 1.125 4.44473 1.125 7.66665 1.125H21.3333C24.5552 1.125 26.1645 1.125 27.1656 2.12608C28.1666 3.12717 28.1666 4.73642 28.1666 7.95833V21.625C28.1666 26.4562 28.1666 28.8735 26.665 30.3734C25.1651 31.875 22.7478 31.875 17.9166 31.875H11.0833C6.25215 31.875 3.83486 31.875 2.33494 30.3734C0.833313 28.8735 0.833313 26.4562 0.833313 21.625V7.95833Z" stroke="white"/>
    <path d="M19.625 26.7498V31.8748M9.375 26.7498V31.8748M9.375 9.6665H19.625M9.375 16.4998H19.625" stroke="white" stroke-linecap="round"/>
</svg>
