<svg width="15" height="16" viewBox="0 0 15 16" fill="none" xmlns="http://www.w3.org/2000/svg">
    <g clip-path="url(#clip0_256_687)">
        <path d="M9.83078 3.42774C10.727 2.52774 12.0383 2.50899 12.7639 3.23774C13.4914 3.96774 13.472 5.28774 12.5745 6.18774L11.0601 7.70836C10.9749 7.79689 10.9278 7.91537 10.929 8.03827C10.9303 8.16118 10.9797 8.27869 11.0668 8.36548C11.1538 8.45227 11.2715 8.5014 11.3944 8.50229C11.5173 8.50318 11.6356 8.45576 11.7239 8.37024L13.2389 6.84961C14.4333 5.65024 14.5833 3.73586 13.4283 2.57586C12.272 1.41524 10.3614 1.56649 9.16578 2.76586L6.13703 5.80774C4.94265 7.00711 4.79265 8.92149 5.94765 10.0809C5.99079 10.1257 6.04243 10.1615 6.09956 10.1862C6.15668 10.2109 6.21816 10.224 6.28039 10.2247C6.34262 10.2254 6.40437 10.2136 6.46203 10.1902C6.51968 10.1668 6.57209 10.1321 6.6162 10.0882C6.66032 10.0443 6.69524 9.99204 6.71895 9.9345C6.74265 9.87695 6.75466 9.81526 6.75427 9.75303C6.75388 9.69079 6.7411 9.62926 6.71668 9.57201C6.69226 9.51477 6.65668 9.46296 6.61203 9.41961C5.88453 8.68961 5.90453 7.36961 6.8014 6.46961L9.83078 3.42774Z" fill="white"/>
        <path d="M9.05292 6.91863C8.96507 6.83053 8.84582 6.78094 8.7214 6.78076C8.59698 6.78059 8.47759 6.82984 8.38949 6.9177C8.30138 7.00555 8.25179 7.1248 8.25162 7.24922C8.25144 7.37364 8.3007 7.49303 8.38855 7.58113C9.11605 8.31113 9.09667 9.63051 8.19917 10.5311L5.1698 13.5724C4.27292 14.4724 2.96167 14.4911 2.23605 13.7624C1.50855 13.0324 1.52855 11.7124 2.42542 10.8124L3.94042 9.29176C3.98388 9.24814 4.01832 9.19638 4.04178 9.13944C4.06524 9.08251 4.07725 9.02151 4.07714 8.95994C4.07702 8.89836 4.06478 8.83741 4.04111 8.78056C4.01743 8.72372 3.9828 8.67209 3.93917 8.62863C3.89555 8.58517 3.84379 8.55073 3.78686 8.52728C3.72993 8.50382 3.66893 8.4918 3.60735 8.49192C3.54578 8.49204 3.48482 8.50428 3.42798 8.52795C3.37113 8.55162 3.31951 8.58626 3.27605 8.62988L1.76105 10.1505C0.566674 11.3505 0.416674 13.2643 1.57167 14.4243C2.72792 15.5855 4.63855 15.4336 5.83417 14.2343L8.86355 11.1924C10.0579 9.99363 10.2079 8.07801 9.05292 6.91863Z" fill="white"/>
    </g>
    <defs>
        <clipPath id="clip0_256_687">
            <rect width="15" height="15" fill="white" transform="translate(0 1)"/>
        </clipPath>
    </defs>
</svg>
