<svg width="21" height="22" viewBox="0 0 21 22" fill="none" xmlns="http://www.w3.org/2000/svg">
    <path fill-rule="evenodd" clip-rule="evenodd" d="M10.3843 2.0625C7.85547 2.0625 5.43023 3.05644 3.64208 4.82566C1.85393 6.59489 0.849365 8.99447 0.849365 11.4965C0.849365 13.9986 1.85393 16.3982 3.64208 18.1674C5.43023 19.9366 7.85547 20.9306 10.3843 20.9306C12.9131 20.9306 15.3384 19.9366 17.1265 18.1674C18.9146 16.3982 19.9192 13.9986 19.9192 11.4965C19.9192 8.99447 18.9146 6.59489 17.1265 4.82566C15.3384 3.05644 12.9131 2.0625 10.3843 2.0625ZM10.3843 19.4792C8.24452 19.4792 6.19239 18.6381 4.67934 17.1411C3.1663 15.6441 2.31628 13.6137 2.31628 11.4965C2.31628 9.3794 3.1663 7.34898 4.67934 5.85195C6.19239 4.35491 8.24452 3.51389 10.3843 3.51389C12.5241 3.51389 14.5762 4.35491 16.0892 5.85195C17.6023 7.34898 18.4523 9.3794 18.4523 11.4965C18.4523 13.6137 17.6023 15.6441 16.0892 17.1411C14.5762 18.6381 12.5241 19.4792 10.3843 19.4792ZM12.658 7.25847C12.4057 6.99611 12.1009 6.78852 11.7632 6.64889C11.3393 6.48095 10.8847 6.40187 10.4283 6.41667C9.98545 6.4104 9.54604 6.49439 9.13742 6.6634C8.78683 6.80854 8.47731 7.03206 8.22793 7.31653C7.9853 7.57817 7.79603 7.88372 7.67051 8.21639C7.55412 8.55447 7.48022 8.90544 7.45047 9.26139H9.25477C9.26308 9.03103 9.33723 8.80773 9.4686 8.61737C9.59998 8.42702 9.7832 8.27741 9.99703 8.18591C10.1385 8.12975 10.2908 8.10545 10.443 8.11479C10.5742 8.09509 10.7078 8.09509 10.839 8.11479C10.9604 8.1583 11.0705 8.22766 11.1618 8.31799C11.2637 8.40524 11.344 8.51448 11.3965 8.63729C11.4579 8.77423 11.4879 8.92292 11.4845 9.07271C11.4845 9.3238 11.4302 9.57053 11.3231 9.7984C11.2166 10.0348 11.0837 10.2587 10.927 10.466L10.4136 11.0756C10.2376 11.2643 10.0616 11.4675 9.90021 11.6707C9.74344 11.8727 9.61055 12.0919 9.50414 12.3238C9.40327 12.5525 9.35324 12.8 9.35745 13.0495V14.0074H11.1177V13.2962C11.1227 13.0834 11.178 12.8746 11.2791 12.6867C11.3992 12.4774 11.5365 12.2784 11.6898 12.0916L12.2179 11.453C12.4113 11.2342 12.5879 11.0013 12.746 10.7563C12.9145 10.5073 13.0524 10.2393 13.1568 9.95806C13.264 9.65988 13.3186 9.34566 13.3181 9.02917C13.3203 8.69947 13.2708 8.37144 13.1714 8.05674C13.0615 7.75662 12.8862 7.4841 12.658 7.25847ZM9.35745 14.8783H11.0737V16.5764H9.35745V14.8783Z" fill="white"/>
</svg>
